<svg data-v-fde0c5aa="" xmlns="http://www.w3.org/2000/svg" viewBox="0 0 300 300" class="iconLeftSlogan"><!----><defs data-v-fde0c5aa=""><!----></defs><rect data-v-fde0c5aa="" fill="#E7F3FC" x="0" y="0" width="300px" height="300px" class="logo-background-square"></rect><defs data-v-fde0c5aa=""><!----></defs><g data-v-fde0c5aa="" id="b33baad1-81cf-4cc8-af5d-4653ef5f9fc6" fill="#253D52" transform="matrix(2.1260228232559686,0,0,2.1260228232559686,89.17407319706138,119.87719365347692)"><path d="M3.21 10.77L4.73 10.77L6.44 14.35L8.81 14.35L6.89 10.51C8.08 10.07 8.67 9.02 8.67 7.70C8.67 5.84 7.52 4.58 5.71 4.58L1.08 4.58L1.08 14.35L3.21 14.35ZM3.21 8.97L3.21 6.43L5.45 6.43C6.08 6.43 6.47 6.76 6.47 7.39L6.47 8.01C6.47 8.64 6.08 8.97 5.45 8.97ZM17.16 14.35L17.16 12.46L12.64 12.46L12.64 10.35L16.52 10.35L16.52 8.47L12.64 8.47L12.64 6.47L17.16 6.47L17.16 4.58L10.51 4.58L10.51 14.35ZM22.18 14.52C24.61 14.52 25.98 13.22 25.98 11.34C25.98 9.66 25.02 8.76 23.02 8.44L22.05 8.29C21.24 8.16 20.89 7.91 20.89 7.24C20.89 6.65 21.35 6.29 22.30 6.29C23.31 6.29 23.94 6.66 24.40 7.21L25.82 5.78C25.02 4.90 23.90 4.41 22.43 4.41C20.13 4.41 18.76 5.63 18.76 7.38C18.76 9.02 19.70 10.02 21.76 10.29L22.72 10.42C23.63 10.54 23.86 10.93 23.86 11.47C23.86 12.18 23.35 12.64 22.32 12.64C21.36 12.64 20.52 12.26 19.87 11.52L18.47 12.94C19.31 13.86 20.47 14.52 22.18 14.52ZM29.88 14.35L29.88 10.82L32.37 10.82C34.19 10.82 35.34 9.55 35.34 7.70C35.34 5.85 34.19 4.58 32.37 4.58L27.75 4.58L27.75 14.35ZM29.88 6.43L32.12 6.43C32.75 6.43 33.14 6.76 33.14 7.39L33.14 8.01C33.14 8.64 32.75 8.97 32.12 8.97L29.88 8.97ZM39.06 10.77L40.59 10.77L42.29 14.35L44.66 14.35L42.74 10.51C43.93 10.07 44.52 9.02 44.52 7.70C44.52 5.84 43.37 4.58 41.57 4.58L36.93 4.58L36.93 14.35L39.06 14.35ZM39.06 8.97L39.06 6.43L41.30 6.43C41.93 6.43 42.32 6.76 42.32 7.39L42.32 8.01C42.32 8.64 41.93 8.97 41.30 8.97ZM50.64 14.35L50.64 12.66L49.38 12.66L49.38 6.27L50.64 6.27L50.64 4.58L45.99 4.58L45.99 6.27L47.25 6.27L47.25 12.66L45.99 12.66L45.99 14.35ZM59.67 14.52C61.46 14.52 62.62 13.66 63.35 12.18L61.61 11.17C61.32 11.97 60.72 12.63 59.67 12.63C58.42 12.63 57.60 11.79 57.60 10.25L57.60 8.68C57.60 7.14 58.42 6.30 59.67 6.30C60.72 6.30 61.24 6.85 61.49 7.66L63.32 6.71C62.61 5.14 61.46 4.41 59.67 4.41C57.04 4.41 55.34 6.23 55.34 9.53C55.34 12.84 57.04 14.52 59.67 14.52ZM68.00 14.52C70.43 14.52 71.81 13.22 71.81 11.34C71.81 9.66 70.84 8.76 68.84 8.44L67.87 8.29C67.06 8.16 66.71 7.91 66.71 7.24C66.71 6.65 67.17 6.29 68.12 6.29C69.13 6.29 69.76 6.66 70.22 7.21L71.64 5.78C70.84 4.90 69.72 4.41 68.25 4.41C65.95 4.41 64.58 5.63 64.58 7.38C64.58 9.02 65.52 10.02 67.58 10.29L68.54 10.42C69.45 10.54 69.68 10.93 69.68 11.47C69.68 12.18 69.17 12.64 68.14 12.64C67.19 12.64 66.35 12.26 65.69 11.52L64.29 12.94C65.13 13.86 66.29 14.52 68.00 14.52ZM76.54 14.52C78.97 14.52 80.35 13.22 80.35 11.34C80.35 9.66 79.38 8.76 77.38 8.44L76.41 8.29C75.60 8.16 75.25 7.91 75.25 7.24C75.25 6.65 75.71 6.29 76.66 6.29C77.67 6.29 78.30 6.66 78.76 7.21L80.18 5.78C79.38 4.90 78.26 4.41 76.79 4.41C74.49 4.41 73.12 5.63 73.12 7.38C73.12 9.02 74.06 10.02 76.12 10.29L77.08 10.42C77.99 10.54 78.22 10.93 78.22 11.47C78.22 12.18 77.71 12.64 76.68 12.64C75.73 12.64 74.89 12.26 74.23 11.52L72.83 12.94C73.67 13.86 74.83 14.52 76.54 14.52Z"></path></g><defs data-v-fde0c5aa=""><linearGradient data-v-fde0c5aa="" gradientTransform="rotate(25)" id="695febf9-50f4-4c6e-90eb-aeab9ed82293" x1="0%" y1="0%" x2="100%" y2="0%"><stop data-v-fde0c5aa="" offset="0%" stop-color="#007DE8" stop-opacity="1"></stop><stop data-v-fde0c5aa="" offset="100%" stop-color="#A1C3DB" stop-opacity="1"></stop></linearGradient></defs><g data-v-fde0c5aa="" id="b88b0248-9c6c-46b0-896b-8bba0f853346" stroke="none" fill="url(#695febf9-50f4-4c6e-90eb-aeab9ed82293)" transform="matrix(0.8014620403628504,0,0,0.8014620403628504,19.16198695056589,109.92689798185748)"><path d="M69 31h-1v-7c0-3.3-2.7-6-6-6H38c-3.3 0-6 2.7-6 6v7h-1c-2.8 0-5 2.2-5 5v22c0 2.8 2.2 5 5 5h1v13c0 3.3 2.7 6 6 6h24c3.3 0 6-2.7 6-6V63h1c2.8 0 5-2.2 5-5V36c0-2.8-2.2-5-5-5zm-24-9h10v2H45v-2zm-11 6h32v3H34v-3zm16 52c-1.7 0-3-1.3-3-3s1.3-3 3-3 3 1.3 3 3-1.3 3-3 3zm16-8H34v-9h10c-.2 1.5-.9 4-3 4v2h18v-2c-2.1 0-2.7-2.5-2.9-4H66v9zM48 60v-2h4v2h-4zm24-5H28V36c0-1.7 1.3-3 3-3h38c1.7 0 3 1.3 3 3v19z"></path></g><defs data-v-fde0c5aa=""><!----></defs><g data-v-fde0c5aa="" id="0918eba5-e361-474d-8ae4-637c7001a30d" fill="#253D52" transform="matrix(0.8446340053807977,0,0,0.8446340053807977,90.5579731753578,157.0222101855212)"><path d="M3.21 10.77L4.73 10.77L6.44 14.35L8.81 14.35L6.89 10.51C8.08 10.07 8.67 9.02 8.67 7.70C8.67 5.84 7.52 4.58 5.71 4.58L1.08 4.58L1.08 14.35L3.21 14.35ZM3.21 8.97L3.21 6.43L5.45 6.43C6.08 6.43 6.47 6.76 6.47 7.39L6.47 8.01C6.47 8.64 6.08 8.97 5.45 8.97ZM17.16 14.35L17.16 12.46L12.64 12.46L12.64 10.35L16.52 10.35L16.52 8.47L12.64 8.47L12.64 6.47L17.16 6.47L17.16 4.58L10.51 4.58L10.51 14.35ZM22.18 14.52C24.61 14.52 25.98 13.22 25.98 11.34C25.98 9.66 25.02 8.76 23.02 8.44L22.05 8.29C21.24 8.16 20.89 7.91 20.89 7.24C20.89 6.65 21.35 6.29 22.30 6.29C23.31 6.29 23.94 6.66 24.40 7.21L25.82 5.78C25.02 4.90 23.90 4.41 22.43 4.41C20.13 4.41 18.76 5.63 18.76 7.38C18.76 9.02 19.70 10.02 21.76 10.29L22.72 10.42C23.63 10.54 23.86 10.93 23.86 11.47C23.86 12.18 23.35 12.64 22.32 12.64C21.36 12.64 20.52 12.26 19.87 11.52L18.47 12.94C19.31 13.86 20.47 14.52 22.18 14.52ZM29.88 14.35L29.88 10.82L32.37 10.82C34.19 10.82 35.34 9.55 35.34 7.70C35.34 5.85 34.19 4.58 32.37 4.58L27.75 4.58L27.75 14.35ZM29.88 6.43L32.12 6.43C32.75 6.43 33.14 6.76 33.14 7.39L33.14 8.01C33.14 8.64 32.75 8.97 32.12 8.97L29.88 8.97ZM40.85 14.52C43.44 14.52 45.15 12.78 45.15 9.46C45.15 6.15 43.44 4.41 40.85 4.41C38.26 4.41 36.55 6.15 36.55 9.46C36.55 12.78 38.26 14.52 40.85 14.52ZM40.85 12.63C39.58 12.63 38.81 11.75 38.81 10.19L38.81 8.74C38.81 7.18 39.58 6.30 40.85 6.30C42.13 6.30 42.90 7.18 42.90 8.74L42.90 10.19C42.90 11.75 42.13 12.63 40.85 12.63ZM52.58 14.35L54.91 14.35L54.91 4.58L52.91 4.58L52.91 11.16L52.86 11.16L51.93 9.20L49.25 4.58L46.93 4.58L46.93 14.35L48.93 14.35L48.93 7.77L48.97 7.77L49.91 9.73ZM60.23 14.52C62.66 14.52 64.04 13.22 64.04 11.34C64.04 9.66 63.07 8.76 61.07 8.44L60.10 8.29C59.29 8.16 58.94 7.91 58.94 7.24C58.94 6.65 59.40 6.29 60.35 6.29C61.36 6.29 61.99 6.66 62.45 7.21L63.87 5.78C63.07 4.90 61.95 4.41 60.48 4.41C58.18 4.41 56.81 5.63 56.81 7.38C56.81 9.02 57.75 10.02 59.81 10.29L60.77 10.42C61.68 10.54 61.91 10.93 61.91 11.47C61.91 12.18 61.40 12.64 60.37 12.64C59.42 12.64 58.58 12.26 57.92 11.52L56.52 12.94C57.36 13.86 58.52 14.52 60.23 14.52ZM70.07 14.35L70.07 12.66L68.81 12.66L68.81 6.27L70.07 6.27L70.07 4.58L65.42 4.58L65.42 6.27L66.68 6.27L66.68 12.66L65.42 12.66L65.42 14.35ZM76.50 14.35L79.67 4.58L77.59 4.58L76.13 9.27L75.39 12.33L75.35 12.33L74.58 9.27L73.12 4.58L70.97 4.58L74.12 14.35ZM87.60 14.35L87.60 12.46L83.08 12.46L83.08 10.35L86.95 10.35L86.95 8.47L83.08 8.47L83.08 6.47L87.60 6.47L87.60 4.58L80.95 4.58L80.95 14.35ZM100.98 14.35L97.80 4.58L95.17 4.58L91.95 14.35L94.11 14.35L94.81 12.03L98.07 12.03L98.77 14.35ZM97.55 10.22L95.31 10.22L96.39 6.51L96.46 6.51ZM108.00 14.35L110.32 14.35L110.32 4.58L108.32 4.58L108.32 11.16L108.28 11.16L107.34 9.20L104.66 4.58L102.34 4.58L102.34 14.35L104.34 14.35L104.34 7.77L104.38 7.77L105.32 9.73ZM112.48 14.35L116.16 14.35C118.75 14.35 120.46 12.71 120.46 9.46C120.46 6.22 118.75 4.58 116.16 4.58L112.48 4.58ZM114.60 12.46L114.60 6.47L116.16 6.47C117.42 6.47 118.20 7.15 118.20 8.71L118.20 10.22C118.20 11.77 117.42 12.46 116.16 12.46ZM127.67 14.35L127.67 10.82L130.16 10.82C131.98 10.82 133.13 9.55 133.13 7.70C133.13 5.85 131.98 4.58 130.16 4.58L125.54 4.58L125.54 14.35ZM127.67 6.43L129.91 6.43C130.54 6.43 130.93 6.76 130.93 7.39L130.93 8.01C130.93 8.64 130.54 8.97 129.91 8.97L127.67 8.97ZM136.85 10.77L138.38 10.77L140.08 14.35L142.45 14.35L140.53 10.51C141.72 10.07 142.31 9.02 142.31 7.70C142.31 5.84 141.16 4.58 139.36 4.58L134.72 4.58L134.72 14.35L136.85 14.35ZM136.85 8.97L136.85 6.43L139.09 6.43C139.72 6.43 140.11 6.76 140.11 7.39L140.11 8.01C140.11 8.64 139.72 8.97 139.09 8.97ZM148.43 14.35L148.43 12.66L147.17 12.66L147.17 6.27L148.43 6.27L148.43 4.58L143.78 4.58L143.78 6.27L145.04 6.27L145.04 12.66L143.78 12.66L143.78 14.35ZM155.86 14.35L158.19 14.35L158.19 4.58L156.18 4.58L156.18 11.16L156.14 11.16L155.20 9.20L152.53 4.58L150.21 4.58L150.21 14.35L152.21 14.35L152.21 7.77L152.25 7.77L153.19 9.73ZM167.06 6.47L167.06 4.58L159.64 4.58L159.64 6.47L162.29 6.47L162.29 14.35L164.42 14.35L164.42 6.47ZM175.84 14.35L172.66 4.58L170.03 4.58L166.81 14.35L168.97 14.35L169.67 12.03L172.93 12.03L173.63 14.35ZM172.41 10.22L170.17 10.22L171.25 6.51L171.32 6.51ZM177.20 14.35L182.38 14.35C183.82 14.35 184.90 13.10 184.90 11.56C184.90 9.88 183.62 9.27 182.70 9.27L182.70 9.18C183.69 9.14 184.52 8.58 184.52 7.08C184.52 5.57 183.55 4.58 181.94 4.58L177.20 4.58ZM179.33 10.32L181.78 10.32C182.34 10.32 182.69 10.64 182.69 11.20L182.69 11.68C182.69 12.24 182.34 12.56 181.78 12.56L179.33 12.56ZM179.33 6.37L181.44 6.37C182 6.37 182.34 6.71 182.34 7.27L182.34 7.69C182.34 8.25 182 8.58 181.44 8.58L179.33 8.58ZM192.39 14.35L192.39 12.46L188.66 12.46L188.66 4.58L186.54 4.58L186.54 14.35ZM200.61 14.35L200.61 12.46L196.08 12.46L196.08 10.35L199.96 10.35L199.96 8.47L196.08 8.47L196.08 6.47L200.61 6.47L200.61 4.58L193.96 4.58L193.96 14.35Z"></path></g></svg>