<svg data-v-fde0c5aa="" xmlns="http://www.w3.org/2000/svg" viewBox="0 0 300 300" class="font"><!----><defs data-v-fde0c5aa=""><!----></defs><rect data-v-fde0c5aa="" fill="#E7F3FC" x="0" y="0" width="300px" height="300px" class="logo-background-square"></rect><defs data-v-fde0c5aa=""><linearGradient data-v-fde0c5aa="" gradientTransform="rotate(25)" id="9c701cd9-667b-45c1-89e1-7e96a1deae88" x1="0%" y1="0%" x2="100%" y2="0%"><stop data-v-fde0c5aa="" offset="0%" stop-color="#007DE8" stop-opacity="1"></stop><stop data-v-fde0c5aa="" offset="100%" stop-color="#A1C3DB" stop-opacity="1"></stop></linearGradient></defs><g data-v-fde0c5aa="" id="4b9d4038-ac36-4a5c-b3d9-e0625040f5a4" fill="url(#9c701cd9-667b-45c1-89e1-7e96a1deae88)" transform="matrix(2.775324956687039,0,0,2.775324956687039,37.002648927673974,123.7315488614762)"><path d="M3.21 10.77L4.73 10.77L6.44 14.35L8.81 14.35L6.89 10.51C8.08 10.07 8.67 9.02 8.67 7.70C8.67 5.84 7.52 4.58 5.71 4.58L1.08 4.58L1.08 14.35L3.21 14.35ZM3.21 8.97L3.21 6.43L5.45 6.43C6.08 6.43 6.47 6.76 6.47 7.39L6.47 8.01C6.47 8.64 6.08 8.97 5.45 8.97ZM17.16 14.35L17.16 12.46L12.64 12.46L12.64 10.35L16.52 10.35L16.52 8.47L12.64 8.47L12.64 6.47L17.16 6.47L17.16 4.58L10.51 4.58L10.51 14.35ZM22.18 14.52C24.61 14.52 25.98 13.22 25.98 11.34C25.98 9.66 25.02 8.76 23.02 8.44L22.05 8.29C21.24 8.16 20.89 7.91 20.89 7.24C20.89 6.65 21.35 6.29 22.30 6.29C23.31 6.29 23.94 6.66 24.40 7.21L25.82 5.78C25.02 4.90 23.90 4.41 22.43 4.41C20.13 4.41 18.76 5.63 18.76 7.38C18.76 9.02 19.70 10.02 21.76 10.29L22.72 10.42C23.63 10.54 23.86 10.93 23.86 11.47C23.86 12.18 23.35 12.64 22.32 12.64C21.36 12.64 20.52 12.26 19.87 11.52L18.47 12.94C19.31 13.86 20.47 14.52 22.18 14.52ZM29.88 14.35L29.88 10.82L32.37 10.82C34.19 10.82 35.34 9.55 35.34 7.70C35.34 5.85 34.19 4.58 32.37 4.58L27.75 4.58L27.75 14.35ZM29.88 6.43L32.12 6.43C32.75 6.43 33.14 6.76 33.14 7.39L33.14 8.01C33.14 8.64 32.75 8.97 32.12 8.97L29.88 8.97ZM39.06 10.77L40.59 10.77L42.29 14.35L44.66 14.35L42.74 10.51C43.93 10.07 44.52 9.02 44.52 7.70C44.52 5.84 43.37 4.58 41.57 4.58L36.93 4.58L36.93 14.35L39.06 14.35ZM39.06 8.97L39.06 6.43L41.30 6.43C41.93 6.43 42.32 6.76 42.32 7.39L42.32 8.01C42.32 8.64 41.93 8.97 41.30 8.97ZM50.64 14.35L50.64 12.66L49.38 12.66L49.38 6.27L50.64 6.27L50.64 4.58L45.99 4.58L45.99 6.27L47.25 6.27L47.25 12.66L45.99 12.66L45.99 14.35ZM59.67 14.52C61.46 14.52 62.62 13.66 63.35 12.18L61.61 11.17C61.32 11.97 60.72 12.63 59.67 12.63C58.42 12.63 57.60 11.79 57.60 10.25L57.60 8.68C57.60 7.14 58.42 6.30 59.67 6.30C60.72 6.30 61.24 6.85 61.49 7.66L63.32 6.71C62.61 5.14 61.46 4.41 59.67 4.41C57.04 4.41 55.34 6.23 55.34 9.53C55.34 12.84 57.04 14.52 59.67 14.52ZM68.00 14.52C70.43 14.52 71.81 13.22 71.81 11.34C71.81 9.66 70.84 8.76 68.84 8.44L67.87 8.29C67.06 8.16 66.71 7.91 66.71 7.24C66.71 6.65 67.17 6.29 68.12 6.29C69.13 6.29 69.76 6.66 70.22 7.21L71.64 5.78C70.84 4.90 69.72 4.41 68.25 4.41C65.95 4.41 64.58 5.63 64.58 7.38C64.58 9.02 65.52 10.02 67.58 10.29L68.54 10.42C69.45 10.54 69.68 10.93 69.68 11.47C69.68 12.18 69.17 12.64 68.14 12.64C67.19 12.64 66.35 12.26 65.69 11.52L64.29 12.94C65.13 13.86 66.29 14.52 68.00 14.52ZM76.54 14.52C78.97 14.52 80.35 13.22 80.35 11.34C80.35 9.66 79.38 8.76 77.38 8.44L76.41 8.29C75.60 8.16 75.25 7.91 75.25 7.24C75.25 6.65 75.71 6.29 76.66 6.29C77.67 6.29 78.30 6.66 78.76 7.21L80.18 5.78C79.38 4.90 78.26 4.41 76.79 4.41C74.49 4.41 73.12 5.63 73.12 7.38C73.12 9.02 74.06 10.02 76.12 10.29L77.08 10.42C77.99 10.54 78.22 10.93 78.22 11.47C78.22 12.18 77.71 12.64 76.68 12.64C75.73 12.64 74.89 12.26 74.23 11.52L72.83 12.94C73.67 13.86 74.83 14.52 76.54 14.52Z"></path></g><!----><!----></svg>